<?xml version="1.0" encoding="utf-8"?>
<!-- Generator: Adobe Illustrator 21.0.0, SVG Export Plug-In . SVG Version: 6.00 Build 0)  -->
<svg version="1.1" id="Layer_1" xmlns="http://www.w3.org/2000/svg" xmlns:xlink="http://www.w3.org/1999/xlink" x="0px" y="0px"
	 viewBox="0 0 100 125" style="enable-background:new 0 0 100 125;" xml:space="preserve">
<style type="text/css">
	.st0{fill:#606060;}
</style>
<g>
	<path class="st0" d="M50,16.3C24.5,16.3,3.8,37,3.8,62.5c0,25.5,20.7,46.2,46.2,46.2c25.5,0,46.2-20.7,46.2-46.2
		C96.2,37,75.5,16.3,50,16.3z M50,100.7c-21.1,0-38.2-17.2-38.2-38.2c0-21.1,17.2-38.2,38.2-38.2c21.1,0,38.2,17.2,38.2,38.2
		C88.2,83.6,71.1,100.7,50,100.7z"/>
	<polygon class="st0" points="65.9,40.6 50,56.5 34.1,40.6 28.1,46.6 44,62.5 28.1,78.4 34.1,84.4 50,68.5 65.9,84.4 71.9,78.4 
		56,62.5 71.9,46.6 	"/>
</g>
</svg>
