<?xml version="1.0" encoding="utf-8"?>
<!-- Generator: Adobe Illustrator 21.0.0, SVG Export Plug-In . SVG Version: 6.00 Build 0)  -->
<svg version="1.1" xmlns="http://www.w3.org/2000/svg" xmlns:xlink="http://www.w3.org/1999/xlink" x="0px" y="0px"
	 viewBox="0 0 432 432" style="enable-background:new 0 0 432 432;" xml:space="preserve">
<style type="text/css">
	.st0{fill:none;}
	.st1{fill:#333333;}
</style>
<g id="Layer_4">
	<g>
		<path class="st0" d="M41.6,216c0,23.6,4.6,46.4,13.7,67.9c8.8,20.8,21.4,39.4,37.4,55.5s34.7,28.6,55.5,37.4
			c21.5,9.1,44.4,13.7,67.9,13.7c23.6,0,46.4-4.6,67.9-13.7c20.8-8.8,39.4-21.4,55.5-37.4s28.6-34.7,37.4-55.5
			c9.1-21.5,13.7-44.4,13.7-67.9c0-23.6-4.6-46.4-13.7-67.9c-8.8-20.8-21.4-39.4-37.4-55.5S304.7,64,283.9,55.3
			c-21.5-9.1-44.4-13.7-67.9-13.7c-23.6,0-46.4,4.6-67.9,13.7c-20.8,8.8-39.4,21.4-55.5,37.4S64,127.3,55.3,148.1"/>
		<path class="st1" d="M420.4,216c0-27.6-5.4-54.4-16.1-79.6c-10.3-24.3-25-46.2-43.8-65s-40.6-33.5-65-43.8
			c-25.2-10.7-52-16.1-79.6-16.1c-27.6,0-54.4,5.4-79.6,16.1c-24.3,10.3-46.2,25-65,43.8s-33.5,40.6-43.8,65
			c-10.7,25.2-16.1,52-16.1,79.6c0,27.6,5.4,54.4,16.1,79.6c10.3,24.3,25,46.2,43.8,65s40.6,33.5,65,43.8
			c25.2,10.7,52,16.1,79.6,16.1c27.6,0,54.4-5.4,79.6-16.1c24.3-10.3,46.2-25,65-43.8s33.5-40.6,43.8-65
			C415,270.4,420.4,243.6,420.4,216z M377,284c-8.8,20.8-21.4,39.5-37.4,55.5S304.8,368.2,284,377c-21.5,9.1-44.4,13.7-68,13.7
			s-46.5-4.6-68-13.7c-20.8-8.8-39.5-21.4-55.5-37.4S63.8,304.8,55,284c-9.1-21.5-13.7-44.4-13.7-68s4.6-46.5,13.7-68
			c8.8-20.8,21.4-39.5,37.4-55.5S127.2,63.8,148,55c21.5-9.1,44.4-13.7,68-13.7s46.5,4.6,68,13.7c20.8,8.8,39.5,21.4,55.5,37.4
			s28.6,34.7,37.4,55.5c9.1,21.5,13.7,44.4,13.7,68S386.1,262.5,377,284z"/>
	</g>
</g>
<g id="Layer_1">
	<g>
		<path class="st1" d="M300.8,161.1H191.1c-8.3,0-15-6.7-15-15s6.7-15,15-15h109.7c8.3,0,15,6.7,15,15S309.1,161.1,300.8,161.1z"/>
		<path class="st1" d="M300.8,231H191.1c-8.3,0-15-6.7-15-15s6.7-15,15-15h109.7c8.3,0,15,6.7,15,15S309.1,231,300.8,231z"/>
		<path class="st1" d="M300.8,300.8H191.1c-8.3,0-15-6.7-15-15c0-8.3,6.7-15,15-15h109.7c8.3,0,15,6.7,15,15
			C315.8,294.1,309.1,300.8,300.8,300.8z"/>
		<path class="st1" d="M141.2,161.1h-10c-8.3,0-15-6.7-15-15s6.7-15,15-15h10c8.3,0,15,6.7,15,15S149.4,161.1,141.2,161.1z"/>
		<path class="st1" d="M141.2,231h-10c-8.3,0-15-6.7-15-15s6.7-15,15-15h10c8.3,0,15,6.7,15,15S149.4,231,141.2,231z"/>
		<path class="st1" d="M141.2,300.8h-10c-8.3,0-15-6.7-15-15c0-8.3,6.7-15,15-15h10c8.3,0,15,6.7,15,15
			C156.1,294.1,149.4,300.8,141.2,300.8z"/>
	</g>
</g>
<g id="Layer_2">
</g>
<g id="Layer_3">
</g>
</svg>
