<?xml version="1.0" encoding="utf-8"?>
<!-- Generator: Adobe Illustrator 21.0.0, SVG Export Plug-In . SVG Version: 6.00 Build 0)  -->
<svg version="1.1" xmlns="http://www.w3.org/2000/svg" xmlns:xlink="http://www.w3.org/1999/xlink" x="0px" y="0px"
	 viewBox="0 0 432 432" style="enable-background:new 0 0 432 432;" xml:space="preserve">
<style type="text/css">
	.st0{fill:none;}
	.st1{fill:#333333;}
</style>
<g id="Layer_4">
	<g>
		<path class="st0" d="M41.6,216c0,23.6,4.6,46.4,13.7,67.9c8.8,20.8,21.4,39.4,37.4,55.5s34.7,28.6,55.5,37.4
			c21.5,9.1,44.4,13.7,67.9,13.7c23.6,0,46.4-4.6,67.9-13.7c20.8-8.8,39.4-21.4,55.5-37.4s28.6-34.7,37.4-55.5
			c9.1-21.5,13.7-44.4,13.7-67.9c0-23.6-4.6-46.4-13.7-67.9c-8.8-20.8-21.4-39.4-37.4-55.5S304.7,64,283.9,55.3
			c-21.5-9.1-44.4-13.7-67.9-13.7c-23.6,0-46.4,4.6-67.9,13.7c-20.8,8.8-39.4,21.4-55.5,37.4S64,127.3,55.3,148.1"/>
		<path class="st1" d="M420.4,216c0-27.6-5.4-54.4-16.1-79.6c-10.3-24.3-25-46.2-43.8-65s-40.6-33.5-65-43.8
			c-25.2-10.7-52-16.1-79.6-16.1c-27.6,0-54.4,5.4-79.6,16.1c-24.3,10.3-46.2,25-65,43.8s-33.5,40.6-43.8,65
			c-10.7,25.2-16.1,52-16.1,79.6c0,27.6,5.4,54.4,16.1,79.6c10.3,24.3,25,46.2,43.8,65s40.6,33.5,65,43.8
			c25.2,10.7,52,16.1,79.6,16.1c27.6,0,54.4-5.4,79.6-16.1c24.3-10.3,46.2-25,65-43.8s33.5-40.6,43.8-65
			C415,270.4,420.4,243.6,420.4,216z M377,284c-8.8,20.8-21.4,39.5-37.4,55.5S304.8,368.2,284,377c-21.5,9.1-44.4,13.7-68,13.7
			s-46.5-4.6-68-13.7c-20.8-8.8-39.5-21.4-55.5-37.4S63.8,304.8,55,284c-9.1-21.5-13.7-44.4-13.7-68s4.6-46.5,13.7-68
			c8.8-20.8,21.4-39.5,37.4-55.5S127.2,63.8,148,55c21.5-9.1,44.4-13.7,68-13.7s46.5,4.6,68,13.7c20.8,8.8,39.5,21.4,55.5,37.4
			s28.6,34.7,37.4,55.5c9.1,21.5,13.7,44.4,13.7,68S386.1,262.5,377,284z"/>
	</g>
</g>
<g id="Layer_1">
</g>
<g id="Layer_2">
	<path class="st1" d="M302.1,316.3c-3.8,0-7.6-1.4-9.9-4.3l-43.5-43.5c-5.7-5.2-6.1-14.2-0.5-19.9c5.7-5.7,14.2-6.1,19.9-0.5
		c0.5,0,0.5,0.5,0.5,0.5l43.5,43.5c5.7,5.7,5.7,14.7,0,19.9C309.2,314.8,305.9,316.3,302.1,316.3z M205.1,295
		c-49.2,0-89.4-40.2-89.4-89.4s40.2-89.4,89.4-89.4s89.4,40.2,89.4,89.4l0,0C294.5,254.8,254.8,294.5,205.1,295z M205.1,144.1
		c-33.6,0-61,27.4-61,61s27.4,61,61,61s61-27.4,61-61l0,0C266.1,171.5,239.2,144.1,205.1,144.1z"/>
</g>
<g id="Layer_3">
</g>
</svg>
