<?xml version="1.0" encoding="utf-8"?>
<!-- Generator: Adobe Illustrator 21.0.0, SVG Export Plug-In . SVG Version: 6.00 Build 0)  -->
<svg version="1.1" id="Layer_1" xmlns="http://www.w3.org/2000/svg" xmlns:xlink="http://www.w3.org/1999/xlink" x="0px" y="0px"
	 viewBox="0 0 100 125" style="enable-background:new 0 0 100 125;" xml:space="preserve">
<style type="text/css">
	.st0{fill:none;}
</style>
<title>Essential Icons</title>
<g>
	<path class="st0" d="M50,28.5c-18.7,0-34,15.3-34,34c0,18.7,15.3,34,34,34c18.7,0,34-15.3,34-34C84,43.8,68.7,28.5,50,28.5z
		 M71.7,76.5c-0.8,0.7-1.9,1-2.9,0.9c-1.1-0.1-2-0.6-2.7-1.4L50.4,57L33.9,76.8c-0.8,0.9-1.9,1.4-3.1,1.4c0,0,0,0,0,0h0
		c-2.2,0-4-1.8-4-4c0-0.9,0.3-1.8,0.9-2.6l19.6-23.5c0.8-0.9,1.9-1.4,3.1-1.4c1.2,0,2.3,0.5,3.1,1.5l18.7,22.7
		c0.7,0.8,1,1.9,0.9,2.9S72.5,75.8,71.7,76.5z"/>
	<path d="M50,22.5c-22.1,0-40,17.9-40,40c0,22.1,17.9,40,40,40c22.1,0,40-17.9,40-40C90,40.4,72.1,22.5,50,22.5z M50,98.5
		c-19.9,0-36-16.1-36-36s16.1-36,36-36s36,16.1,36,36S69.9,98.5,50,98.5z"/>
	<path d="M70.7,72.1L52,49.5c-0.8-0.9-2.3-0.9-3.1,0L29.3,73c-0.3,0.4-0.5,0.8-0.5,1.3c0,1.1,0.9,2,2,2c0,0,0,0,0,0
		c0.6,0,1.2-0.3,1.5-0.7l18.1-21.7l17.2,20.8c0.3,0.4,0.8,0.7,1.4,0.7c0.5,0.1,1.1-0.1,1.5-0.5c0.4-0.3,0.7-0.8,0.7-1.4
		S71,72.5,70.7,72.1z"/>
</g>
</svg>
