<?xml version="1.0" encoding="utf-8"?>
<!-- Generator: Adobe Illustrator 21.0.0, SVG Export Plug-In . SVG Version: 6.00 Build 0)  -->
<svg version="1.1" id="Layer_1" xmlns="http://www.w3.org/2000/svg" xmlns:xlink="http://www.w3.org/1999/xlink" x="0px" y="0px"
	 viewBox="0 0 100 125" style="enable-background:new 0 0 100 125;" xml:space="preserve">
<title>Essential Icons</title>
<path d="M50,91C27.4,91,9,72.6,9,50S27.4,9,50,9s41,18.4,41,41S72.6,91,50,91z M50,15c-19.3,0-35,15.7-35,35s15.7,35,35,35
	s35-15.7,35-35S69.3,15,50,15z"/>
<path d="M30.8,60.8c-1.7,0-3-1.3-3-3c0-0.7,0.2-1.4,0.7-1.9l19.6-23.5c0.6-0.7,1.4-1.1,2.3-1.1l0,0c0.9,0,1.7,0.4,2.3,1.1L71.5,55
	c1.1,1.3,0.9,3.2-0.4,4.2c-1.3,1.1-3.2,0.9-4.2-0.4L50.4,38.9L33.1,59.7C32.6,60.4,31.7,60.8,30.8,60.8z"/>
</svg>
