<svg id="Layer_1" data-name="Layer 1" xmlns="http://www.w3.org/2000/svg" xmlns:xlink="http://www.w3.org/1999/xlink" viewBox="0 0 211.29 41.8"><defs><style>.cls-1{opacity:0.85;}.cls-2{fill:#1f3033;}.cls-3{fill:#52686d;}.cls-4{opacity:0.49;}.cls-5{fill:url(#linear-gradient);}.cls-6{fill:url(#linear-gradient-2);}.cls-7{fill:url(#linear-gradient-3);}.cls-8{fill:url(#linear-gradient-4);}.cls-9{fill:url(#linear-gradient-5);}.cls-10{fill:url(#linear-gradient-6);}.cls-11{fill:url(#linear-gradient-7);}.cls-12{opacity:0.4;}.cls-13{fill:none;}.cls-14{fill:#b4e3f5;}.cls-15{fill:#94d4ee;}.cls-16{fill:#33b1e0;}.cls-17{fill:#66c4ea;}</style><linearGradient id="linear-gradient" x1="153.98" y1="292.88" x2="163.14" y2="292.88" gradientTransform="translate(-121.3 -264.7)" gradientUnits="userSpaceOnUse"><stop offset="0" stop-color="#fff"/><stop offset="1" stop-color="#072838"/></linearGradient><linearGradient id="linear-gradient-2" x1="135.42" y1="271.71" x2="163.18" y2="271.71" gradientTransform="translate(-121.2 -264.6)" xlink:href="#linear-gradient"/><linearGradient id="linear-gradient-3" x1="121.3" y1="292.6" x2="135.42" y2="292.6" gradientTransform="translate(-121.2 -264.6)" xlink:href="#linear-gradient"/><linearGradient id="linear-gradient-4" x1="144.82" y1="301.96" x2="163.18" y2="301.96" xlink:href="#linear-gradient"/><linearGradient id="linear-gradient-5" x1="153.98" y1="297.4" x2="163.18" y2="297.4" xlink:href="#linear-gradient"/><linearGradient id="linear-gradient-6" x1="135.19" y1="292.6" x2="153.98" y2="292.6" xlink:href="#linear-gradient"/><linearGradient id="linear-gradient-7" x1="135.42" y1="288.06" x2="163.18" y2="288.06" xlink:href="#linear-gradient"/></defs><title>Acelist-Logo-New</title><g class="cls-1"><path class="cls-2" d="M69.62,35q-.42-1.3-.9-2.67l-1-2.73H58l-.95,2.74q-.47,1.37-.88,2.66H50.36q1.41-4,2.67-7.45t2.47-6.44q1.21-3,2.38-5.74t2.44-5.31h5.32q1.23,2.59,2.42,5.31t2.41,5.74q1.21,3,2.48,6.44T75.63,35ZM62.87,15.7q-.19.54-.55,1.48l-.82,2.16q-.46,1.23-1,2.7T59.3,25.14h7.13q-.57-1.62-1.11-3.1t-1-2.71l-.85-2.16Q63.09,16.23,62.87,15.7Z" transform="translate(-0.1 -0.1)"/><path class="cls-2" d="M92.3,35.5q-6.08,0-9.27-3.38t-3.19-9.61a14.78,14.78,0,0,1,1-5.53,11.9,11.9,0,0,1,2.66-4.1,11.14,11.14,0,0,1,4-2.54,14.55,14.55,0,0,1,5.08-.86,16.29,16.29,0,0,1,2.88.23,18.78,18.78,0,0,1,2.27.54,11.24,11.24,0,0,1,1.62.63q.65.32.94.5l-1.62,4.54a13.62,13.62,0,0,0-2.68-1,12.79,12.79,0,0,0-3.47-.43,7.67,7.67,0,0,0-2.54.43,5.74,5.74,0,0,0-2.2,1.39,6.9,6.9,0,0,0-1.53,2.47,10.34,10.34,0,0,0-.58,3.67,13.1,13.1,0,0,0,.38,3.22,6.83,6.83,0,0,0,1.22,2.57,5.87,5.87,0,0,0,2.21,1.71,7.88,7.88,0,0,0,3.31.63,15.14,15.14,0,0,0,2.2-.14A16.26,16.26,0,0,0,96.73,30a9.07,9.07,0,0,0,1.33-.45l1-.47,1.55,4.5a13.09,13.09,0,0,1-3.35,1.3A19.52,19.52,0,0,1,92.3,35.5Z" transform="translate(-0.1 -0.1)"/><path class="cls-2" d="M107.24,35V10.05h16.85v4.72H112.86v4.9h10v4.61h-10v6h12.06V35Z" transform="translate(-0.1 -0.1)"/><path class="cls-2" d="M148.71,30.18V35H132V10.05h5.62V30.18Z" transform="translate(-0.1 -0.1)"/><path class="cls-2" d="M155.3,10.05h5.62V35H155.3Z" transform="translate(-0.1 -0.1)"/><path class="cls-2" d="M176.47,30.72a8.07,8.07,0,0,0,2-.2,3.58,3.58,0,0,0,1.24-.54,1.81,1.81,0,0,0,.65-.81,2.88,2.88,0,0,0,.18-1,2.41,2.41,0,0,0-1.15-2,16.52,16.52,0,0,0-4-1.75q-1.22-.43-2.45-1a9,9,0,0,1-2.2-1.4,6.7,6.7,0,0,1-1.58-2.05,6.42,6.42,0,0,1-.61-2.93,7.27,7.27,0,0,1,.65-3.11A6.64,6.64,0,0,1,171,11.49,8.41,8.41,0,0,1,173.91,10a12.94,12.94,0,0,1,3.82-.52,15.26,15.26,0,0,1,7.38,1.73l-1.62,4.43a15.38,15.38,0,0,0-2.32-1,10.06,10.06,0,0,0-3.08-.41,5.65,5.65,0,0,0-2.9.56,1.88,1.88,0,0,0-.88,1.71,2,2,0,0,0,.32,1.15,3.16,3.16,0,0,0,.92.85,8,8,0,0,0,1.37.68q.77.31,1.71.63,1.94.72,3.38,1.42a9.07,9.07,0,0,1,2.39,1.64,5.94,5.94,0,0,1,1.42,2.2,8.84,8.84,0,0,1,.47,3.06,6.5,6.5,0,0,1-2.45,5.42q-2.45,1.93-7.38,1.93a20.61,20.61,0,0,1-3-.2,19.55,19.55,0,0,1-2.36-.49,13.44,13.44,0,0,1-1.76-.61,13,13,0,0,1-1.24-.61l1.58-4.46a14,14,0,0,0,2.75,1.1A14.27,14.27,0,0,0,176.47,30.72Z" transform="translate(-0.1 -0.1)"/><path class="cls-2" d="M211.38,10.05v4.79h-7.52V35h-5.62V14.84h-7.52V10.05Z" transform="translate(-0.1 -0.1)"/></g><path class="cls-3" d="M42,23.7V14.11a13.88,13.88,0,1,0-27.75,0h0A13.9,13.9,0,1,0,14,41.9H42Z" transform="translate(-0.1 -0.1)"/><line class="cls-3" x1="13.89" y1="41.8" x2="13.89" y2="41.8"/><g id="_Group_" data-name="&lt;Group&gt;" class="cls-4"><polygon id="_Path_" data-name="&lt;Path&gt;" class="cls-5" points="32.68 32.72 41.84 23.63 32.68 32.72 32.68 32.72"/><path id="_Path_2" data-name="&lt;Path&gt;" class="cls-6" d="M38,4.21A13.88,13.88,0,0,0,14.22,14.1H42A13.83,13.83,0,0,0,38,4.21Z" transform="translate(-0.1 -0.1)"/><path id="_Path_3" data-name="&lt;Path&gt;" class="cls-7" d="M4.21,18.13A13.91,13.91,0,0,0,14,41.9l.23-27.79A13.84,13.84,0,0,0,4.21,18.13Z" transform="translate(-0.1 -0.1)"/><polygon id="_Path_4" data-name="&lt;Path&gt;" class="cls-8" points="41.88 41.8 32.68 32.72 23.52 41.8 41.88 41.8"/><polygon id="_Path_5" data-name="&lt;Path&gt;" class="cls-9" points="41.88 41.8 41.88 23.6 32.68 32.72 41.88 41.8"/><polygon id="_Path_6" data-name="&lt;Path&gt;" class="cls-10" points="14.12 14 14.12 14.01 13.89 41.8 13.89 41.8 23.52 41.8 23.52 41.8 32.68 32.72 32.68 32.72 14.12 14"/><polygon id="_Path_7" data-name="&lt;Path&gt;" class="cls-11" points="41.88 14.01 14.13 14 14.12 14 14.12 14 32.68 32.72 41.88 23.6 41.88 14.01 41.88 14.01"/></g><g id="_Group_2" data-name="&lt;Group&gt;" class="cls-12"><polygon id="_Path_8" data-name="&lt;Path&gt;" class="cls-13" points="32.68 32.72 41.84 23.63 32.68 32.72 32.68 32.72"/><path id="_Path_9" data-name="&lt;Path&gt;" class="cls-14" d="M38,4.21A13.88,13.88,0,0,0,14.22,14.1H42A13.83,13.83,0,0,0,38,4.21Z" transform="translate(-0.1 -0.1)"/><path id="_Path_10" data-name="&lt;Path&gt;" class="cls-15" d="M4.21,18.13A13.91,13.91,0,0,0,14,41.9l.23-27.79A13.84,13.84,0,0,0,4.21,18.13Z" transform="translate(-0.1 -0.1)"/><polygon id="_Path_11" data-name="&lt;Path&gt;" class="cls-14" points="41.88 41.8 32.68 32.72 23.52 41.8 41.88 41.8"/><polygon id="_Path_12" data-name="&lt;Path&gt;" class="cls-15" points="41.88 41.8 41.88 23.6 32.68 32.72 41.88 41.8"/><polygon id="_Path_13" data-name="&lt;Path&gt;" class="cls-16" points="14.12 14 14.12 14.01 13.89 41.8 13.89 41.8 23.52 41.8 23.52 41.8 32.68 32.72 32.68 32.72 14.12 14"/><polygon id="_Path_14" data-name="&lt;Path&gt;" class="cls-17" points="41.88 14.01 14.13 14 14.12 14 14.12 14 32.68 32.72 41.88 23.6 41.88 14.01 41.88 14.01"/></g></svg>