<?xml version="1.0" encoding="utf-8"?>
<!-- Generator: Adobe Illustrator 21.0.0, SVG Export Plug-In . SVG Version: 6.00 Build 0)  -->
<svg version="1.1" id="Layer_1" xmlns="http://www.w3.org/2000/svg" xmlns:xlink="http://www.w3.org/1999/xlink" x="0px" y="0px"
	 viewBox="0 0 211.3 41.8" style="enable-background:new 0 0 211.3 41.8;" xml:space="preserve">
<style type="text/css">
	.st0{opacity:0.85;}
	.st1{fill:#1F3033;}
	.st2{fill:#52686D;}
	.st3{fill:none;}
	.st4{opacity:0.49;}
	.st5{fill:url(#_Path__1_);}
	.st6{fill:url(#_Path_2_1_);}
	.st7{fill:url(#_Path_3_1_);}
	.st8{fill:url(#_Path_4_1_);}
	.st9{fill:url(#_Path_5_1_);}
	.st10{fill:url(#_Path_6_1_);}
	.st11{fill:url(#_Path_7_1_);}
	.st12{opacity:0.4;}
	.st13{fill:#B4E3F5;}
	.st14{fill:#94D4EE;}
	.st15{fill:#33B1E0;}
	.st16{fill:#66C4EA;}
</style>
<title>Acelist-Logo-New</title>
<g class="st0">
	<path class="st1" d="M69.5,34.9c-0.3-0.9-0.6-1.8-0.9-2.7l-1-2.7h-9.7l-1,2.7c-0.3,0.9-0.6,1.8-0.9,2.7h-5.8
		c0.9-2.7,1.8-5.2,2.7-7.5s1.7-4.4,2.5-6.4c0.8-2,1.6-3.9,2.4-5.7c0.8-1.8,1.6-3.6,2.4-5.3h5.3c0.8,1.7,1.6,3.5,2.4,5.3
		s1.6,3.7,2.4,5.7c0.8,2,1.6,4.1,2.5,6.4c0.8,2.3,1.7,4.8,2.7,7.4H69.5z M62.8,15.6c-0.1,0.4-0.3,0.9-0.5,1.5l-0.8,2.2
		c-0.3,0.8-0.6,1.7-1,2.7s-0.8,2-1.2,3.1h7.1c-0.4-1.1-0.8-2.1-1.1-3.1c-0.4-1-0.7-1.9-1-2.7l-0.8-2.2C63.1,16.4,62.9,16,62.8,15.6z
		"/>
	<path class="st1" d="M92.2,35.4c-4.1,0-7.1-1.1-9.3-3.4c-2.1-2.3-3.2-5.5-3.2-9.6c0-1.9,0.3-3.8,1-5.5c0.6-1.5,1.5-2.9,2.7-4.1
		c1.1-1.1,2.5-2,4-2.5c1.6-0.6,3.3-0.9,5.1-0.9c1,0,1.9,0.1,2.9,0.2c0.8,0.1,1.5,0.3,2.3,0.5c0.6,0.2,1.1,0.4,1.6,0.6
		c0.4,0.2,0.7,0.4,0.9,0.5l-1.6,4.5c-0.9-0.4-1.8-0.8-2.7-1c-1.1-0.3-2.3-0.4-3.5-0.4c-0.9,0-1.7,0.1-2.5,0.4
		c-0.8,0.3-1.6,0.8-2.2,1.4c-0.7,0.7-1.2,1.5-1.5,2.5c-0.4,1.2-0.6,2.4-0.6,3.7c0,1.1,0.1,2.2,0.4,3.2c0.2,0.9,0.6,1.8,1.2,2.6
		c0.6,0.7,1.3,1.3,2.2,1.7c1,0.4,2.2,0.7,3.3,0.6c0.7,0,1.5,0,2.2-0.1c0.6-0.1,1.2-0.3,1.7-0.4c0.5-0.1,0.9-0.3,1.3-0.5l1-0.5
		l1.6,4.5c-1.1,0.6-2.2,1-3.3,1.3C95.5,35.2,93.9,35.4,92.2,35.4z"/>
	<path class="st1" d="M107.1,34.9v-25H124v4.7h-11.2v4.9h10v4.6h-10v6h12.1v4.7H107.1z"/>
	<path class="st1" d="M148.6,30.1v4.8h-16.7v-25h5.6v20.1H148.6z"/>
	<path class="st1" d="M155.2,9.9h5.6v25h-5.6V9.9z"/>
	<path class="st1" d="M176.4,30.6c0.7,0,1.3-0.1,2-0.2c0.4-0.1,0.9-0.3,1.2-0.5c0.3-0.2,0.5-0.5,0.6-0.8c0.1-0.3,0.2-0.7,0.2-1
		c0-0.8-0.5-1.6-1.1-2c-1.3-0.8-2.6-1.3-4-1.8c-0.8-0.3-1.6-0.6-2.4-1c-0.8-0.4-1.5-0.8-2.2-1.4c-0.7-0.6-1.2-1.3-1.6-2
		c-0.4-0.9-0.6-1.9-0.6-2.9c0-1.1,0.2-2.1,0.6-3.1c0.4-0.9,1-1.8,1.8-2.4c0.9-0.7,1.9-1.2,2.9-1.5c1.2-0.4,2.5-0.5,3.8-0.5
		c2.6-0.1,5.1,0.5,7.4,1.7l-1.6,4.4c-0.7-0.4-1.5-0.7-2.3-1c-1-0.3-2-0.4-3.1-0.4c-1-0.1-2,0.1-2.9,0.6c-0.6,0.4-0.9,1-0.9,1.7
		c0,0.4,0.1,0.8,0.3,1.1c0.2,0.3,0.6,0.6,0.9,0.9c0.4,0.3,0.9,0.5,1.4,0.7c0.5,0.2,1.1,0.4,1.7,0.6c1.3,0.5,2.4,1,3.4,1.4
		c0.9,0.4,1.7,1,2.4,1.6c0.6,0.6,1.1,1.4,1.4,2.2c0.3,1,0.5,2,0.5,3.1c0.1,2.1-0.8,4.1-2.4,5.4c-1.6,1.3-4.1,1.9-7.4,1.9
		c-1,0-2-0.1-3-0.2c-0.8-0.1-1.6-0.3-2.4-0.5c-0.6-0.2-1.2-0.4-1.8-0.6c-0.4-0.2-0.8-0.4-1.2-0.6l1.6-4.5c0.9,0.5,1.8,0.8,2.8,1.1
		C173.6,30.5,175,30.6,176.4,30.6z"/>
	<path class="st1" d="M211.3,9.9v4.8h-7.5v20.2h-5.6V14.7h-7.5V9.9H211.3z"/>
</g>
<g>
	<path class="st2" d="M41.9,14c0-3.7-1.4-7.3-4-9.9C32.5-1.3,23.7-1.4,18.3,4c-2.7,2.6-4.2,6.3-4.1,10v0v0c-3.7-0.1-7.3,1.4-10,4
		c-5.4,5.4-5.5,14.2,0,19.6c2.6,2.6,6.1,4.1,9.8,4.1v0h9.6h18.3V23.6V14l-27.7,0L41.9,14z"/>
	<line class="st3" x1="18.5" y1="35.2" x2="18.5" y2="35.2"/>
	<g id="_Group_" class="st4">
		
			<linearGradient id="_Path__1_" gradientUnits="userSpaceOnUse" x1="153.9714" y1="-248.8819" x2="163.1134" y2="-248.8819" gradientTransform="matrix(1 0 0 -1 -121.3 -220.7)">
			<stop  offset="0" style="stop-color:#FFFFFF"/>
			<stop  offset="1" style="stop-color:#072838"/>
		</linearGradient>
		<polygon id="_Path_" class="st5" points="32.7,32.7 41.8,23.6 32.7,32.7 		"/>
		
			<linearGradient id="_Path_2_1_" gradientUnits="userSpaceOnUse" x1="135.4468" y1="-227.7323" x2="163.1543" y2="-227.7323" gradientTransform="matrix(1 0 0 -1 -121.3 -220.7)">
			<stop  offset="0" style="stop-color:#FFFFFF"/>
			<stop  offset="1" style="stop-color:#072838"/>
		</linearGradient>
		<path id="_Path_2" class="st6" d="M37.9,4.2C32.5-1.3,23.7-1.4,18.3,4c-2.7,2.6-4.2,6.3-4.1,10l27.7,0
			C41.9,10.4,40.5,6.8,37.9,4.2z"/>
		
			<linearGradient id="_Path_3_1_" gradientUnits="userSpaceOnUse" x1="121.367" y1="-248.6112" x2="135.4577" y2="-248.6112" gradientTransform="matrix(1 0 0 -1 -121.3 -220.7)">
			<stop  offset="0" style="stop-color:#FFFFFF"/>
			<stop  offset="1" style="stop-color:#072838"/>
		</linearGradient>
		<path id="_Path_3" class="st7" d="M4.2,18.1c-5.4,5.4-5.5,14.2,0,19.6c2.6,2.6,6.1,4.1,9.8,4.1L14.2,14C10.4,14,6.8,15.4,4.2,18.1
			z"/>
		
			<linearGradient id="_Path_4_1_" gradientUnits="userSpaceOnUse" x1="144.8293" y1="-257.9491" x2="163.1533" y2="-257.9491" gradientTransform="matrix(1 0 0 -1 -121.3 -220.7)">
			<stop  offset="0" style="stop-color:#FFFFFF"/>
			<stop  offset="1" style="stop-color:#072838"/>
		</linearGradient>
		<polygon id="_Path_4" class="st8" points="41.9,41.8 32.7,32.7 23.5,41.8 		"/>
		
			<linearGradient id="_Path_5_1_" gradientUnits="userSpaceOnUse" x1="153.9714" y1="-253.3981" x2="163.1533" y2="-253.3981" gradientTransform="matrix(1 0 0 -1 -121.3 -220.7)">
			<stop  offset="0" style="stop-color:#FFFFFF"/>
			<stop  offset="1" style="stop-color:#072838"/>
		</linearGradient>
		<polygon id="_Path_5" class="st9" points="41.9,41.8 41.9,23.6 32.7,32.7 		"/>
		
			<linearGradient id="_Path_6_1_" gradientUnits="userSpaceOnUse" x1="135.2182" y1="-248.6075" x2="153.9714" y2="-248.6075" gradientTransform="matrix(1 0 0 -1 -121.3 -220.7)">
			<stop  offset="0" style="stop-color:#FFFFFF"/>
			<stop  offset="1" style="stop-color:#072838"/>
		</linearGradient>
		<polygon id="_Path_6" class="st10" points="14.1,14 14.1,14 13.9,41.8 13.9,41.8 23.5,41.8 23.5,41.8 32.7,32.7 32.7,32.7 		"/>
		
			<linearGradient id="_Path_7_1_" gradientUnits="userSpaceOnUse" x1="135.4478" y1="-244.0764" x2="163.1533" y2="-244.0764" gradientTransform="matrix(1 0 0 -1 -121.3 -220.7)">
			<stop  offset="0" style="stop-color:#FFFFFF"/>
			<stop  offset="1" style="stop-color:#072838"/>
		</linearGradient>
		<polygon id="_Path_7" class="st11" points="41.9,14 14.2,14 14.1,14 14.1,14 32.7,32.7 41.9,23.6 41.9,14 		"/>
	</g>
	<g id="_Group_2" class="st12">
		<polygon id="_Path_8" class="st3" points="32.7,32.7 41.8,23.6 32.7,32.7 		"/>
		<path id="_Path_9" class="st13" d="M37.9,4.2C32.5-1.3,23.7-1.4,18.3,4c-2.7,2.6-4.2,6.3-4.1,10l27.7,0
			C41.9,10.4,40.5,6.8,37.9,4.2z"/>
		<path id="_Path_10" class="st14" d="M4.2,18.1c-5.4,5.4-5.5,14.2,0,19.6c2.6,2.6,6.1,4.1,9.8,4.1L14.2,14
			C10.4,14,6.8,15.4,4.2,18.1z"/>
		<polygon id="_Path_11" class="st13" points="41.9,41.8 32.7,32.7 23.5,41.8 		"/>
		<polygon id="_Path_12" class="st14" points="41.9,41.8 41.9,23.6 32.7,32.7 		"/>
		<polygon id="_Path_13" class="st15" points="14.1,14 14.1,14 13.9,41.8 13.9,41.8 23.5,41.8 23.5,41.8 32.7,32.7 32.7,32.7 		"/>
		<polygon id="_Path_14" class="st16" points="41.9,14 14.2,14 14.1,14 14.1,14 32.7,32.7 41.9,23.6 41.9,14 		"/>
	</g>
</g>
</svg>
