<?xml version="1.0" encoding="utf-8"?>
<!-- Generator: Adobe Illustrator 21.0.0, SVG Export Plug-In . SVG Version: 6.00 Build 0)  -->
<svg version="1.1" id="Layer_1" xmlns="http://www.w3.org/2000/svg" xmlns:xlink="http://www.w3.org/1999/xlink" x="0px" y="0px"
	 viewBox="0 0 100 125" style="enable-background:new 0 0 100 125;" xml:space="preserve">
<g>
	<path d="M18.2,30.7c-17.5,17.5-17.5,46.1,0,63.6s46.1,17.5,63.6,0s17.5-46.1,0-63.6S35.7,13.1,18.2,30.7z M77.9,90.4
		c-15.4,15.4-40.4,15.4-55.9,0S6.7,50,22.1,34.6s40.4-15.4,55.9,0S93.3,75,77.9,90.4z"/>
	<polygon points="53,37 47,37 47,59.5 24.5,59.5 24.5,65.5 47,65.5 47,88 53,88 53,65.5 75.5,65.5 75.5,59.5 53,59.5 	"/>
</g>
</svg>
