<?xml version="1.0" encoding="utf-8"?>
<!-- Generator: Adobe Illustrator 21.0.0, SVG Export Plug-In . SVG Version: 6.00 Build 0)  -->
<svg version="1.1" id="Layer_1" xmlns="http://www.w3.org/2000/svg" xmlns:xlink="http://www.w3.org/1999/xlink" x="0px" y="0px"
	 viewBox="0 0 100 125" style="enable-background:new 0 0 100 125;" xml:space="preserve">
<style type="text/css">
	.st0{fill:#FFFFFF;}
</style>
<g>
	<path class="st0" d="M50,23c-21.8,0-39.5,17.7-39.5,39.5S28.2,102,50,102s39.5-17.7,39.5-39.5S71.8,23,50,23z M70.1,78.4l-4.2,4.2
		L50,66.7L34.1,82.6l-4.2-4.2l15.9-15.9L29.9,46.6l4.2-4.2L50,58.3l15.9-15.9l4.2,4.2L54.2,62.5L70.1,78.4z"/>
	<path d="M50,17.5c-24.8,0-45,20.2-45,45s20.2,45,45,45s45-20.2,45-45S74.8,17.5,50,17.5z M50,102c-21.8,0-39.5-17.7-39.5-39.5
		S28.2,23,50,23s39.5,17.7,39.5,39.5S71.8,102,50,102z"/>
	<polygon points="65.9,42.4 50,58.3 34.1,42.4 29.9,46.6 45.8,62.5 29.9,78.4 34.1,82.6 50,66.7 65.9,82.6 70.1,78.4 54.2,62.5 
		70.1,46.6 	"/>
</g>
</svg>
