<?xml version="1.0" encoding="utf-8"?>
<!-- Generator: Adobe Illustrator 21.0.0, SVG Export Plug-In . SVG Version: 6.00 Build 0)  -->
<svg version="1.1" id="Layer_1" xmlns="http://www.w3.org/2000/svg" xmlns:xlink="http://www.w3.org/1999/xlink" x="0px" y="0px"
	 viewBox="0 0 100 125" style="enable-background:new 0 0 100 125;" xml:space="preserve">
<g>
	<path d="M50,17.5c-24.8,0-45,20.2-45,45c0,24.8,20.2,45,45,45c24.8,0,45-20.2,45-45C95,37.7,74.8,17.5,50,17.5z M50,102
		c-21.8,0-39.5-17.7-39.5-39.5S28.2,23,50,23s39.5,17.7,39.5,39.5S71.8,102,50,102z"/>
	<polygon points="70.1,46.6 65.9,42.4 50,58.3 34.1,42.4 29.9,46.6 45.8,62.5 29.9,78.4 34.1,82.6 50,66.7 65.9,82.6 70.1,78.4 
		54.2,62.5 	"/>
</g>
</svg>
