<?xml version="1.0" encoding="utf-8"?>
<!-- Generator: Adobe Illustrator 21.0.0, SVG Export Plug-In . SVG Version: 6.00 Build 0)  -->
<svg version="1.1" id="Layer_1" xmlns="http://www.w3.org/2000/svg" xmlns:xlink="http://www.w3.org/1999/xlink" x="0px" y="0px"
	 viewBox="0 0 648.7 101.5" style="enable-background:new 0 0 648.7 101.5;" xml:space="preserve">
<style type="text/css">
	.st0{fill:#333333;}
</style>
<g>
	<g>
		<path class="st0" d="M637.3,101.3H11.4C5.1,101.3,0,96.2,0,89.9V11.5C0,5.2,5.1,0.1,11.4,0.1h625.8c6.3,0,11.4,5.1,11.4,11.4V90
			C648.6,96.2,643.5,101.3,637.3,101.3z M11.4,4.2C7.3,4.2,4,7.5,4,11.6V90c0,4.1,3.3,7.4,7.4,7.4h625.8c4.1,0,7.4-3.3,7.4-7.4V11.5
			c0-4.1-3.3-7.4-7.4-7.4L11.4,4.2L11.4,4.2z"/>
	</g>
	<g>
		<path class="st0" d="M77.3,17.8H29.2c-4.9,0-8.9,4-8.9,8.9v48.1c0,4.9,4,8.9,8.9,8.9H53V60.2h-6.1c-0.8,0-1.4-0.6-1.4-1.4v-7.6
			c0-0.8,0.6-1.4,1.4-1.4H53v-7.3c0-8.5,5.2-13.1,12.8-13.1H72c0.8,0,1.4,0.6,1.4,1.4V37c0,0.8-0.6,1.4-1.4,1.4h-3.8
			c-4.1,0-4.9,2-4.9,4.8v6.3h9.1c0.9,0,1.5,0.8,1.4,1.6l-0.9,7.6c-0.1,0.7-0.7,1.3-1.4,1.3h-8.1v23.5h14.1c4.9,0,8.9-4,8.9-8.9V26.7
			C86.2,21.8,82.2,17.8,77.3,17.8L77.3,17.8z"/>
	</g>
	<g>
		<path class="st0" d="M129.8,45.7c-0.5-0.6-1-1-1.7-1.3s-1.4-0.5-2.3-0.5s-1.7,0.2-2.4,0.5c-0.8,0.3-1.4,0.8-2,1.4
			c-0.6,0.6-1,1.3-1.3,2.2c-0.3,0.8-0.5,1.8-0.5,2.7c0,1,0.2,1.9,0.5,2.7s0.7,1.6,1.3,2.2c0.5,0.6,1.2,1.1,1.9,1.4
			c0.7,0.3,1.5,0.5,2.4,0.5c1,0,1.8-0.2,2.6-0.6c0.7-0.4,1.4-1,1.8-1.7l3.9,2.9c-0.9,1.3-2,2.2-3.4,2.8s-2.8,0.9-4.3,0.9
			c-1.7,0-3.2-0.3-4.6-0.8s-2.6-1.3-3.6-2.2c-1-1-1.8-2.1-2.4-3.5s-0.9-2.9-0.9-4.6c0-1.7,0.3-3.2,0.9-4.6c0.6-1.4,1.4-2.6,2.4-3.5
			c1-1,2.2-1.7,3.6-2.2s2.9-0.8,4.6-0.8c0.6,0,1.2,0.1,1.9,0.2c0.7,0.1,1.3,0.3,1.9,0.5c0.6,0.2,1.2,0.6,1.8,1s1.1,0.9,1.6,1.5
			L129.8,45.7z"/>
	</g>
	<g>
		<path class="st0" d="M138.9,50.8c0-1.7,0.3-3.2,0.9-4.6c0.6-1.4,1.4-2.6,2.4-3.5c1-1,2.2-1.7,3.6-2.2c1.4-0.5,2.9-0.8,4.6-0.8
			c1.7,0,3.2,0.3,4.6,0.8c1.4,0.5,2.6,1.3,3.6,2.2c1,1,1.8,2.1,2.4,3.5c0.6,1.4,0.9,2.9,0.9,4.6c0,1.7-0.3,3.2-0.9,4.6
			c-0.6,1.4-1.4,2.6-2.4,3.5c-1,1-2.2,1.7-3.6,2.2c-1.4,0.5-2.9,0.8-4.6,0.8c-1.7,0-3.2-0.3-4.6-0.8c-1.4-0.5-2.6-1.3-3.6-2.2
			c-1-1-1.8-2.1-2.4-3.5C139.2,54,138.9,52.5,138.9,50.8z M143.8,50.8c0,1,0.2,1.9,0.5,2.7s0.8,1.6,1.3,2.2c0.6,0.6,1.3,1.1,2.1,1.4
			c0.8,0.3,1.7,0.5,2.7,0.5s1.9-0.2,2.7-0.5s1.5-0.8,2.1-1.4c0.6-0.6,1-1.3,1.3-2.2c0.3-0.8,0.5-1.7,0.5-2.7s-0.2-1.9-0.5-2.7
			s-0.8-1.6-1.3-2.2c-0.6-0.6-1.3-1.1-2.1-1.4c-0.8-0.3-1.7-0.5-2.7-0.5s-1.9,0.2-2.7,0.5s-1.5,0.8-2.1,1.4c-0.6,0.6-1,1.3-1.3,2.2
			C143.9,48.9,143.8,49.8,143.8,50.8z"/>
	</g>
	<g>
		<path class="st0" d="M168.6,40.1h6.4l9,14.8h0.1V40.1h4.7v21.3h-6.1l-9.3-15.1h-0.1v15.1h-4.7L168.6,40.1L168.6,40.1z"/>
	</g>
	<g>
		<path class="st0" d="M200.8,44.3h-6.1v-4.1h16.8v4.1h-6.1v17.1h-4.7V44.3H200.8z"/>
	</g>
	<g>
		<path class="st0" d="M217.5,40.1h4.7v21.3h-4.7V40.1z"/>
	</g>
	<g>
		<path class="st0" d="M230,40.1h6.4l9,14.8h0.1V40.1h4.7v21.3h-6.1l-9.3-15.1h-0.1v15.1H230V40.1z"/>
	</g>
	<g>
		<path class="st0" d="M276,53.2c0,1.3-0.2,2.4-0.6,3.5s-0.9,2-1.7,2.8c-0.8,0.8-1.7,1.4-2.8,1.8c-1.1,0.4-2.4,0.7-3.9,0.7
			s-2.8-0.2-3.9-0.7c-1.1-0.4-2.1-1.1-2.8-1.8c-0.8-0.8-1.3-1.7-1.7-2.8c-0.4-1.1-0.6-2.2-0.6-3.5V40.1h4.7V53
			c0,0.7,0.1,1.3,0.3,1.8c0.2,0.6,0.5,1,0.9,1.5c0.4,0.4,0.8,0.7,1.4,1c0.5,0.2,1.1,0.3,1.7,0.3s1.2-0.1,1.7-0.3s1-0.6,1.4-1
			s0.7-0.9,0.9-1.5c0.2-0.6,0.3-1.2,0.3-1.8V40.1h4.7V53.2z"/>
	</g>
	<g>
		<path class="st0" d="M284.1,40.1h14.4v4.3h-9.8v4h9.2v4.3h-9.2V57H299v4.3h-15V40.1H284.1z"/>
	</g>
	<g>
		<path class="st0" d="M316.8,40.1h5.1l3.4,13.6h0.1l4.4-13.6h4.4l4.4,14h0.1l3.6-14h4.7l-6.2,21.3h-4.2l-4.7-14.7h-0.1l-4.7,14.7
			h-4L316.8,40.1z"/>
	</g>
	<g>
		<path class="st0" d="M352.5,40.1h4.7v21.3h-4.7V40.1z"/>
	</g>
	<g>
		<path class="st0" d="M369.2,44.3h-6.1v-4.1H380v4.1h-6.1v17.1h-4.7L369.2,44.3L369.2,44.3z"/>
	</g>
	<g>
		<path class="st0" d="M385.9,40.1h4.7V48h9.1v-7.9h4.7v21.3h-4.7v-9.2h-9.1v9.2h-4.7V40.1z"/>
	</g>
	<g>
		<path class="st0" d="M425,40.1h14.3v4.3h-9.6v4.3h8.9V53h-8.9v8.3H425V40.1z"/>
	</g>
	<g>
		<path class="st0" d="M451.6,40.1h3.9l9.2,21.3h-5.3l-1.8-4.5h-8.3l-1.8,4.5h-5.2L451.6,40.1z M453.4,46.3l-2.6,6.6h5.2L453.4,46.3
			z"/>
	</g>
	<g>
		<path class="st0" d="M484.3,45.7c-0.5-0.6-1-1-1.7-1.3s-1.4-0.5-2.3-0.5s-1.7,0.2-2.4,0.5c-0.8,0.3-1.4,0.8-2,1.4
			c-0.6,0.6-1,1.3-1.3,2.2c-0.3,0.8-0.5,1.8-0.5,2.7c0,1,0.2,1.9,0.5,2.7s0.7,1.6,1.3,2.2c0.5,0.6,1.2,1.1,1.9,1.4
			c0.7,0.3,1.5,0.5,2.4,0.5c1,0,1.8-0.2,2.6-0.6c0.7-0.4,1.4-1,1.8-1.7l3.9,2.9c-0.9,1.3-2,2.2-3.4,2.8s-2.8,0.9-4.3,0.9
			c-1.7,0-3.2-0.3-4.6-0.8s-2.6-1.3-3.6-2.2c-1-1-1.8-2.1-2.4-3.5s-0.9-2.9-0.9-4.6c0-1.7,0.3-3.2,0.9-4.6c0.6-1.4,1.4-2.6,2.4-3.5
			c1-1,2.2-1.7,3.6-2.2s2.9-0.8,4.6-0.8c0.6,0,1.2,0.1,1.9,0.2c0.6,0.1,1.3,0.3,1.9,0.5s1.2,0.6,1.8,1c0.6,0.4,1.1,0.9,1.6,1.5
			L484.3,45.7z"/>
	</g>
	<g>
		<path class="st0" d="M494.8,40.1h14.4v4.3h-9.8v4h9.2v4.3h-9.2V57h10.3v4.3h-15V40.1H494.8z"/>
	</g>
	<g>
		<path class="st0" d="M517.1,40.1h7.9c0.9,0,1.8,0.1,2.8,0.2c0.9,0.1,1.8,0.4,2.5,0.8c0.7,0.4,1.3,0.9,1.8,1.6
			c0.5,0.7,0.7,1.6,0.7,2.8s-0.3,2.2-1,3s-1.6,1.4-2.7,1.7v0.1c0.7,0.1,1.3,0.3,1.9,0.6c0.6,0.3,1.1,0.7,1.5,1.1
			c0.4,0.5,0.7,1,0.9,1.6s0.3,1.2,0.3,1.9c0,1.1-0.2,2.1-0.7,2.8c-0.5,0.8-1.1,1.4-1.9,1.8c-0.8,0.5-1.6,0.8-2.6,1s-1.9,0.3-2.8,0.3
			H517L517.1,40.1L517.1,40.1z M521.8,48.6h3.4c0.4,0,0.7,0,1.1-0.1c0.3-0.1,0.7-0.2,0.9-0.4c0.3-0.2,0.5-0.4,0.7-0.7
			s0.3-0.7,0.3-1.1c0-0.4-0.1-0.8-0.3-1.1s-0.4-0.5-0.7-0.7s-0.6-0.3-1-0.3c-0.4-0.1-0.8-0.1-1.1-0.1h-3.2v4.5H521.8z M521.8,57.4
			h4.2c0.4,0,0.7,0,1.1-0.1c0.4-0.1,0.7-0.2,1-0.4s0.5-0.5,0.7-0.8s0.3-0.7,0.3-1.2s-0.1-0.9-0.4-1.2c-0.3-0.3-0.6-0.5-0.9-0.7
			c-0.4-0.2-0.8-0.3-1.2-0.3c-0.4-0.1-0.9-0.1-1.2-0.1h-3.5L521.8,57.4L521.8,57.4z"/>
	</g>
	<g>
		<path class="st0" d="M539,50.8c0-1.7,0.3-3.2,0.9-4.6c0.6-1.4,1.4-2.6,2.4-3.5c1-1,2.2-1.7,3.6-2.2c1.4-0.5,2.9-0.8,4.6-0.8
			c1.7,0,3.2,0.3,4.6,0.8c1.4,0.5,2.6,1.3,3.6,2.2c1,1,1.8,2.1,2.4,3.5c0.6,1.4,0.9,2.9,0.9,4.6c0,1.7-0.3,3.2-0.9,4.6
			c-0.6,1.4-1.4,2.6-2.4,3.5c-1,1-2.2,1.7-3.6,2.2c-1.4,0.5-2.9,0.8-4.6,0.8c-1.7,0-3.2-0.3-4.6-0.8c-1.4-0.5-2.6-1.3-3.6-2.2
			c-1-1-1.8-2.1-2.4-3.5C539.3,54,539,52.5,539,50.8z M543.9,50.8c0,1,0.2,1.9,0.5,2.7s0.8,1.6,1.3,2.2c0.6,0.6,1.3,1.1,2.1,1.4
			c0.8,0.3,1.7,0.5,2.7,0.5s1.9-0.2,2.7-0.5s1.5-0.8,2.1-1.4c0.6-0.6,1-1.3,1.3-2.2c0.3-0.8,0.5-1.7,0.5-2.7s-0.2-1.9-0.5-2.7
			s-0.8-1.6-1.3-2.2c-0.6-0.6-1.3-1.1-2.1-1.4c-0.8-0.3-1.7-0.5-2.7-0.5s-1.9,0.2-2.7,0.5s-1.5,0.8-2.1,1.4c-0.6,0.6-1,1.3-1.3,2.2
			C544.1,48.9,543.9,49.8,543.9,50.8z"/>
	</g>
	<g>
		<path class="st0" d="M567.6,50.8c0-1.7,0.3-3.2,0.9-4.6c0.6-1.4,1.4-2.6,2.4-3.5c1-1,2.2-1.7,3.6-2.2c1.4-0.5,2.9-0.8,4.6-0.8
			c1.7,0,3.2,0.3,4.6,0.8c1.4,0.5,2.6,1.3,3.6,2.2c1,1,1.8,2.1,2.4,3.5c0.6,1.4,0.9,2.9,0.9,4.6c0,1.7-0.3,3.2-0.9,4.6
			c-0.6,1.4-1.4,2.6-2.4,3.5c-1,1-2.2,1.7-3.6,2.2c-1.4,0.5-2.9,0.8-4.6,0.8c-1.7,0-3.2-0.3-4.6-0.8c-1.4-0.5-2.6-1.3-3.6-2.2
			c-1-1-1.8-2.1-2.4-3.5C567.9,54,567.6,52.5,567.6,50.8z M572.5,50.8c0,1,0.2,1.9,0.5,2.7s0.8,1.6,1.3,2.2c0.6,0.6,1.3,1.1,2.1,1.4
			c0.8,0.3,1.7,0.5,2.7,0.5s1.9-0.2,2.7-0.5s1.5-0.8,2.1-1.4c0.6-0.6,1-1.3,1.3-2.2c0.3-0.8,0.5-1.7,0.5-2.7s-0.2-1.9-0.5-2.7
			s-0.8-1.6-1.3-2.2c-0.6-0.6-1.3-1.1-2.1-1.4c-0.8-0.3-1.7-0.5-2.7-0.5s-1.9,0.2-2.7,0.5s-1.5,0.8-2.1,1.4c-0.6,0.6-1,1.3-1.3,2.2
			C572.6,48.9,572.5,49.8,572.5,50.8z"/>
	</g>
	<g>
		<path class="st0" d="M597.5,40.1h4.7V49l8.3-8.8h6.1l-9.5,9.9l10.3,11.4h-6.5l-8.6-10.1v10.1h-4.7L597.5,40.1L597.5,40.1z"/>
	</g>
</g>
</svg>
