<?xml version="1.0" encoding="utf-8"?>
<!-- Generator: Adobe Illustrator 21.0.0, SVG Export Plug-In . SVG Version: 6.00 Build 0)  -->
<svg version="1.1" xmlns="http://www.w3.org/2000/svg" xmlns:xlink="http://www.w3.org/1999/xlink" x="0px" y="0px"
	 viewBox="0 0 100 125" style="enable-background:new 0 0 100 125;" xml:space="preserve">
<g id="Layer_1">
	<g>
		<path d="M50,17.5c-24.8,0-45,20.2-45,45s20.2,45,45,45s45-20.2,45-45S74.8,17.5,50,17.5z M50,102c-21.8,0-39.5-17.7-39.5-39.5
			S28.2,23,50,23s39.5,17.7,39.5,39.5S71.8,102,50,102z"/>
	</g>
</g>
<g id="Layer_2">
	<g>
		<path d="M49.8,45.1c1.2,0,2.3-0.4,3.1-1.2c0.7-0.7,1-1.7,1-2.8c0-2.4-1.6-4-3.9-4c-2.3,0-4,1.7-4,4C45.9,43.5,47.5,45.1,49.8,45.1
			z"/>
		<rect x="46.7" y="51.6" width="6.4" height="36.2"/>
	</g>
</g>
</svg>
