<?xml version="1.0" encoding="utf-8"?>
<!-- Generator: Adobe Illustrator 21.0.0, SVG Export Plug-In . SVG Version: 6.00 Build 0)  -->
<svg version="1.1" id="Layer_1" xmlns="http://www.w3.org/2000/svg" xmlns:xlink="http://www.w3.org/1999/xlink" x="0px" y="0px"
	 viewBox="0 0 100 125" style="enable-background:new 0 0 100 125;" xml:space="preserve">
<style type="text/css">
	.st0{fill:#FFFFFF;}
	.st1{fill:none;}
</style>
<g>
	<path class="st0" d="M50,26.5c-19.9,0-36,16.1-36,36s16.1,36,36,36s36-16.1,36-36S69.9,26.5,50,26.5z M70.5,74.9
		c-0.4,0.4-1,0.6-1.5,0.5c-0.6,0-1.1-0.3-1.4-0.7L50.4,53.9L32.3,75.6c-0.3,0.4-0.9,0.7-1.5,0.7c-1.1,0-2-0.9-2-2
		c0-0.5,0.2-0.9,0.5-1.3l19.6-23.5c0.8-0.9,2.3-0.9,3.1,0l18.7,22.6c0.3,0.4,0.5,0.8,0.5,1.4S70.9,74.6,70.5,74.9z"/>
	<path class="st0" d="M50,22.5c-22.1,0-40,17.9-40,40s17.9,40,40,40s40-17.9,40-40S72.1,22.5,50,22.5z M50,98.5
		c-19.9,0-36-16.1-36-36s16.1-36,36-36s36,16.1,36,36S69.9,98.5,50,98.5z"/>
	<path class="st0" d="M52,49.5c-0.8-0.9-2.3-0.9-3.1,0L29.3,73c-0.3,0.4-0.5,0.8-0.5,1.3c0,1.1,0.9,2,2,2c0.6,0,1.2-0.3,1.5-0.7
		l18.1-21.7l17.2,20.8c0.3,0.4,0.8,0.7,1.4,0.7c0.5,0.1,1.1-0.1,1.5-0.5c0.4-0.3,0.7-0.8,0.7-1.4s-0.2-1-0.5-1.4L52,49.5z"/>
</g>
<title>Essential Icons</title>
<g>
	<path class="st1" d="M50,26.5c-19.9,0-36,16.1-36,36s16.1,36,36,36s36-16.1,36-36S69.9,26.5,50,26.5z M70.5,74.9
		c-0.4,0.4-1,0.6-1.5,0.5c-0.6,0-1.1-0.3-1.4-0.7L50.4,53.9L32.3,75.6c-0.3,0.4-0.9,0.7-1.5,0.7c-1.1,0-2-0.9-2-2
		c0-0.5,0.2-0.9,0.5-1.3l19.6-23.5c0.8-0.9,2.3-0.9,3.1,0l18.7,22.6c0.3,0.4,0.5,0.8,0.5,1.4S70.9,74.6,70.5,74.9z"/>
	<path d="M50,22.5c-22.1,0-40,17.9-40,40s17.9,40,40,40s40-17.9,40-40S72.1,22.5,50,22.5z M50,98.5c-19.9,0-36-16.1-36-36
		s16.1-36,36-36s36,16.1,36,36S69.9,98.5,50,98.5z"/>
	<path d="M52,49.5c-0.8-0.9-2.3-0.9-3.1,0L29.3,73c-0.3,0.4-0.5,0.8-0.5,1.3c0,1.1,0.9,2,2,2c0.6,0,1.2-0.3,1.5-0.7l18.1-21.7
		l17.2,20.8c0.3,0.4,0.8,0.7,1.4,0.7c0.5,0.1,1.1-0.1,1.5-0.5c0.4-0.3,0.7-0.8,0.7-1.4s-0.2-1-0.5-1.4L52,49.5z"/>
</g>
</svg>
